#tb 0: 1/25
0,          0,          0,        1,   152064, 0xffb77a34
0,          1,          1,        1,   152064, 0x866267f2
0,          2,          2,        1,   152064, 0x1033f97f
0,          3,          3,        1,   152064, 0x266699ea
0,          4,          4,        1,   152064, 0x3d50cb34
0,          5,          5,        1,   152064, 0x04559792
0,          6,          6,        1,   152064, 0x70432827
0,          7,          7,        1,   152064, 0x3fd8282c
0,          8,          8,        1,   152064, 0x512c353b
0,          9,          9,        1,   152064, 0x3d6114eb
0,         10,         10,        1,   152064, 0xf87751aa
0,         11,         11,        1,   152064, 0x76cb091f
0,         12,         12,        1,   152064, 0xbe63eb36
0,         13,         13,        1,   152064, 0xc19bcdd5
0,         14,         14,        1,   152064, 0xe21c4c5d
0,         15,         15,        1,   152064, 0x671ab9b5
0,         16,         16,        1,   152064, 0x4ffcdcd3
0,         17,         17,        1,   152064, 0x6cc7ed10
0,         18,         18,        1,   152064, 0x19612034
0,         19,         19,        1,   152064, 0x31c0999a
0,         20,         20,        1,   152064, 0xd14eb105
0,         21,         21,        1,   152064, 0x4976e4b4
0,         22,         22,        1,   152064, 0x7bc8e85d
0,         23,         23,        1,   152064, 0xaf522965
0,         24,         24,        1,   152064, 0x0b01e419
0,         25,         25,        1,   152064, 0x1c07aacb
0,         26,         26,        1,   152064, 0x2813a828
0,         27,         27,        1,   152064, 0x956412a4
0,         28,         28,        1,   152064, 0xb9f10b96
0,         29,         29,        1,   152064, 0x756bb78c
0,         30,         30,        1,   152064, 0x758f8389
0,         31,         31,        1,   152064, 0xa8a19f1b
0,         32,         32,        1,   152064, 0x5846b4ae
0,         33,         33,        1,   152064, 0xb9a9fe23
0,         34,         34,        1,   152064, 0xefd6be7d
0,         35,         35,        1,   152064, 0xffde6849
0,         36,         36,        1,   152064, 0xd8284623
0,         37,         37,        1,   152064, 0xa1754236
0,         38,         38,        1,   152064, 0x00c384cd
0,         39,         39,        1,   152064, 0xa3538c53
0,         40,         40,        1,   152064, 0x039c7df0
0,         41,         41,        1,   152064, 0x89abb26f
0,         42,         42,        1,   152064, 0xd84cbc79
0,         43,         43,        1,   152064, 0xd87111a0
0,         44,         44,        1,   152064, 0x6dcbd7cc
0,         45,         45,        1,   152064, 0x2a7b53d5
0,         46,         46,        1,   152064, 0xbb70187c
0,         47,         47,        1,   152064, 0xfc809695
0,         48,         48,        1,   152064, 0x5b608465
0,         49,         49,        1,   152064, 0x6169c077
